<svg width="128" height="128" viewBox="0 0 128 128" fill="none" xmlns="http://www.w3.org/2000/svg">
  <rect width="128" height="128" rx="64" fill="#4C44C9"/>
  <path fill-rule="evenodd" clip-rule="evenodd" d="M98.1826 54.5662C99.5478 56.0147 100.278 58.0235 100.278 60.0324C100.278 62.6509 99.0864 65.2694 96.7023 66.9075C88.3974 72.7646 76.1529 81.7022 71.7405 81.7022C68.9929 81.7022 66.5181 78.7386 66.5181 76.0293C66.5181 73.8318 68.2562 71.7322 71.3675 71.7322C71.9303 71.7322 72.4024 71.6414 73.0559 71.2684C75.5307 69.8199 77.8242 67.7202 80.1176 65.6205C77.3699 64.6353 74.6222 64.0818 71.9652 64.0818C54.563 64.0818 40 78.4565 40 96.0412C40 97.9592 40.1813 99.7786 40.5458 101.507C36.6877 96.8747 34.8418 90.5567 34.8418 84.4283C34.8418 67.0758 50.7049 52 71.7405 52C80.3896 52 89.5889 54.7093 96.1493 59.7956C97.1435 60.4401 97.7063 61.2736 98.1826 62.2587V54.5662Z" fill="white"/>
  <path fill-rule="evenodd" clip-rule="evenodd" d="M57.6765 76.3295C56.0749 75.2535 54.1099 74.7 52.0914 74.7C45.5367 74.7 40 79.8192 40 87.4296C40 95.04 45.5367 100.159 52.0914 100.159C58.6461 100.159 63.4281 95.5273 64.2278 88.6695H56.7291C56.1984 91.43 54.6503 93.2003 52.0914 93.2003C48.7234 93.2003 46.0878 90.677 46.0878 87.4296C46.0878 84.1823 48.7234 81.659 52.0914 81.659C54.1099 81.659 55.8348 82.8027 56.7291 84.6403H64.2278C63.6174 79.8192 60.9819 77.2285 57.6765 76.3295Z" fill="white"/>
</svg> 